<?xml version="1.0" encoding="utf-8"?>
<!-- Generator: Adobe Illustrator 18.0.0, SVG Export Plug-In . SVG Version: 6.00 Build 0)  -->
<!DOCTYPE svg PUBLIC "-//W3C//DTD SVG 1.1//EN" "http://www.w3.org/Graphics/SVG/1.1/DTD/svg11.dtd">
<svg version="1.1" id="Layer_1" xmlns="http://www.w3.org/2000/svg" xmlns:xlink="http://www.w3.org/1999/xlink" x="0px" y="0px"
	 viewBox="20.1 -8.4 535.5 800.4" enable-background="new 20.1 -8.4 535.5 800.4" xml:space="preserve">
<g>
	<g>
		<g>
			<path d="M273,574.6c-1.9-1-3.9-1.9-5.8-2.8c-11.6-5.1-20-13.7-26-24.9c-0.6-1.1-1.1-2.1-1.8-3.3c-1.2,0-2.5,0-3.7,0
				c-29.1,0-58.3,0-87.6,0c-2.8,0-4.3,0.7-5.7,3.3c-6.1,10.9-12.4,21.7-18.6,32.6c-1.8,3.2-3.9,6.1-7.5,7.6
				c-3.7,1.7-7.2,2.9-11.6,1.5c-4.7-1.4-8.1-3.9-10.5-8c-3-5.2-3-10.6-0.1-15.9c3.7-6.8,7.6-13.4,11.6-20.3
				c-0.8-0.3-1.4-0.6-1.9-0.6c-3.7,0-7.5,0-11.3,0c-1.5,0-2.5,0.7-3.2,1.9c-6.1,10.6-12,21.3-18.1,31.8c-2.3,4-4.6,8-9.1,9.9
				c-3.6,1.5-6.9,2.5-11,1.4c-4.6-1.4-8-3.7-10.4-7.7c-3.3-5.5-3.3-11-0.3-16.6c3.5-6.2,7-12.4,10.6-18.8c0.3-0.4,0.4-0.8,0.8-1.5
				c-1-0.1-1.8-0.4-2.5-0.6c-5.2-0.4-9.7-2.2-13.1-6.4c-6.9-8.3-3.9-20.9,5.7-25.4c2.1-1,4.1-1.4,6.4-1.4c1.4,0,2.6,0,4,0
				c0.4-1.7-0.3-2.8-1-3.9c-3.6-6.4-7.2-12.7-10.9-18.9c-5.1-8.7-1.2-19.9,8.4-23.6c7.3-2.8,15.5-0.4,19.7,6.4
				c4.3,6.9,8.3,14.1,12.3,21.1c3.2,5.5,6.5,11,9.7,16.7c1,1.7,2.1,2.3,4,2.2c3.9,0,7.7,0,11.5,0c0.7-2.6-1-4.3-1.9-5.9
				c-3.2-5.8-6.5-11.5-9.8-17c-5.9-9.9,1-22.2,11.2-24.2c6.1-1.1,14.2,2.1,17.3,7.6c6.6,11.9,13.5,23.5,20.4,35.2
				c0.6,0.8,1,1.8,1.5,2.5c0.8,1.1,1.8,1.9,3.3,1.8c0.7,0,1.4,0,1.9,0c27.6,0,55.2,0,82.9,0c1.2,0,2.3,0,3.7,0
				c1.1-2.9,2.2-5.7,3.3-8.3c4.4-11.3,12.2-19.7,22.5-26c2.8-1.7,5.9-2.9,9-4.1c1.1-0.4,1.7-1,1.7-2.1c0-3.3,0-6.6,0-10.1
				c-3.2-0.6-6.1-1.2-9.1-1.5c-4.7-0.6-9.3-1.2-13.8-2.5c-2.2-0.6-4.4-1-6.8-1.5c-9.1-1.8-17.7-4.8-26.4-8.1
				c-7.6-2.9-15.1-6.1-22.2-9.8c-13.9-7.2-26.9-15.6-39.1-25.5c-10.4-8.4-19.7-17.7-28.4-27.8c-10.5-12.2-19.5-25.4-27.1-39.5
				c-4.4-8.1-8.3-16.6-11.6-25.1c-2.5-6.5-4.4-13.1-6.4-19.7c-1.4-4.6-2.6-9.3-3.7-13.9c-0.8-3.6-1.2-7.2-1.7-10.8
				c-0.7-5.1-1.5-10.2-2.2-15.3c-0.1-0.8-0.1-1.5-0.1-2.3c-0.1-2.2-0.1-4.4-0.3-6.6c-0.3-8.1,0.1-16.3-1-24.4
				c-0.6-4.4-0.4-9-0.4-13.5c0-8.3,0-16.6,0-24.9c0-1.2,0-2.3,0-4.1c-1.2,0.7-2.1,1.1-2.6,1.5c-5.9,4.8-12,9.7-18,14.6
				c-9,7.5-21.8,3.6-26.1-7c-2.5-6.2,0-14.6,5.8-19.2c7-5.7,14.1-11.3,21.1-17c1-0.8,1.7-1.9,2.5-3c-3.6-2.8-6.9-5.2-10.2-7.7
				c-4.6-3.3-9.3-6.4-13.7-9.8c-4.6-3.7-7.5-8.6-7-14.5c0.4-6.2,4.6-12.3,11.2-14.6c6.6-2.5,12-0.1,17.1,3.5
				c7.3,5.2,14.5,10.6,22.1,16.3c0.7-1.5,1.4-2.9,1.7-4.3c4.8-16.8,14.1-30.8,27.5-42.1c5.4-4.6,11.2-8.3,17.3-11.3
				c2.3-1.1,2.6-2.5,2.6-4.7c0-8.6-0.3-17,0-25.5c0.4-10.4,3.5-19.7,10.5-27.6c5.7-6.4,12.7-10.8,20.9-12.8
				c5.5-1.4,11.2-1.8,17.1-0.7c8,1.4,15.1,4.6,21,10.1c0.3,0.3,0.6,0.4,0.7,0.7c3.6,3.7,3.6,3.7,7.9,1.8c3.6-1.5,7.3-2.6,11.3-2.5
				c0.6,0,1.1,0,1.7,0c7.9-0.4,15.1,2.1,21.7,5.9c8.4,5,14.4,12.2,17.8,21.3c2.1,5.8,3.5,11.9,2.3,18.1c-0.3,2.1,0.3,2.8,2.5,2.9
				c2.6,0.1,5.2,0,8,0.1c8.6,0.6,15.9,3.9,22.4,9.4c5,4.3,9,9.3,11.5,15.3c1.8,4.3,3.2,8.8,3.5,13.7c0.4,8.4-1.4,16-5.5,23.3
				c-4.4,7.7-10.8,13.4-18.8,17.1c-6.1,2.8-12.6,3.9-19.2,4c-3.6,0-7.3,0-10.9,0c-1.1,0-2.2,0.1-3.3,0.1c-0.1,0.7-0.3,1.1-0.3,1.5
				c0.3,11.2,0.6,22.2,0.8,33.4c0.1,7.2,0.3,14.4,0.3,21.5c0.1,11.9,5.5,20.7,15.2,27.2c4.3,2.8,9.1,4.1,14.4,5
				c8.8,1.4,17.5,1.2,26.4,1c5.5-0.1,11.2-0.8,16.6-2.2c3.2-0.8,6.5-1,9.7-1.8c4.7-1.4,9.4-2.9,13.9-4.6c9-3.3,17.5-7.7,25.5-13
				c11.6-7.5,22-16.4,30.9-26.9c7.2-8.4,13.3-17.5,18.2-27.5c3-6.1,5.9-12.4,7.7-19.1c1.1-4,2.5-7.9,3.6-11.9
				c0.8-3.2,1.2-6.5,1.8-9.7c0.6-3.9,0.8-7.7,1.7-11.5c1.1-5.2,4.4-8.8,9.4-11c7.3-3,14.4-1.2,19.3,4.4c8.1,9.1,15.3,18.9,21.8,29.3
				c7.2,11.5,13,23.5,18.1,35.9c1.8,4.4,3.2,9,4.6,13.7c1.8,5.7,3.5,11.2,5,17c0.8,2.9,1.2,6.1,1.7,9.1c0.6,3.6,1.1,7.2,1.7,10.8
				c2.5,15.3,3,30.8,1.7,46.3c-0.6,6.6-1.2,13.1-2.1,19.7c-0.6,3.7-1.5,7.5-2.3,11.3c-0.4,2.2-1.1,4.4-1.5,6.8
				c-1.5,8.3-4.3,16.3-7.2,24c-2.8,7.7-6.2,15.2-9.9,22.5c-6.1,12.2-13.4,23.6-21.7,34.5c-12.3,16.2-26.5,30.2-42.7,42.5
				c-11.2,8.4-23.2,15.9-35.8,22.1c-8.1,4-16.4,7.6-24.9,10.5c-6.9,2.5-13.9,4.7-21.1,6.1c-4.4,0.8-9,1.9-13.4,2.8
				c-7.6,1.2-15.2,2.5-22.8,2.6c-1.5,0-3,0.6-4.7,0.8c0,3.7,0,7.3,0,11c14.1,4.8,24.3,14.1,31.2,27.2c1.4,2.6,2.2,5.7,3.2,8.6
				c0.7,2.3,1.4,3,4,3c0.8,0,1.5,0,2.3,0c59.4,0,84.6,0,144,0c1.4,0,2.9,0,4.1,0c0.8-1.5,0-2.1-0.8-2.9
				c-5.9-5.8-11.7-11.7-17.5-17.5c-2.5-2.3-4.4-5.1-5.5-8.3c-1.9-5.9,1-13.9,6.2-18c5.5-4.1,15.6-4.3,21.3,1.4
				c4.6,4.7,9.4,9.3,13.9,13.9c11.5,11.5,22.9,23.1,34.5,34.4c3,3,5.5,6.4,6.2,10.6c0.4,3.2,0.3,6.6-0.1,9.8
				c-0.6,4.3-3.2,7.5-6.2,10.4c-15.7,15.6-31.5,31.3-47.1,47.1c-2.3,2.3-5,4-8.1,5.1c-6.9,2.5-16.7-2.1-19.6-9.5
				c-2.8-7.2-1-13.7,3.6-18.2c7.3-7.5,14.9-14.9,22.4-22.4c0.7-0.7,1.2-1.4,2.1-2.5c-1.1-0.1-1.8-0.4-2.5-0.4c-0.8,0-1.5,0-2.3,0
				c-62,0-90,0-151.9,0c-0.8,0-1.8,0-2.6,0c-1.4,0-2.2,0.7-2.8,1.9c-5.2,11.5-13.8,19.7-24.9,25.5c-1.4,0.7-2.9,1.4-4.6,1.8
				c-1.8,0.6-2.6,1.5-2.5,3.3c0,1,0,1.9,0,3c0,63.7,0,127.3,0,190.9c0,5.9-2.1,11-7,14.5c-4,2.8-8.1,4.3-13.5,2.8
				c-6.1-1.8-9.8-5.4-11.9-11c-0.4-1-0.6-2.1-0.7-3.2c-0.1-1.8-0.1-3.6-0.1-5.2c0-63,0-125.9,0-188.9C273,577.7,273,576.2,273,574.6
				z M459.2,145.1c-1.8-0.3-2.2,0.4-2.5,1.4c-1,3-1.9,6.1-3.2,9c-6.2,13.8-13.5,27.1-22.9,38.9c-8.1,10.5-17.3,19.9-27.6,28.3
				c-10.2,8.4-21.4,15.6-33.3,21.3c-6.1,2.9-12.4,5.2-18.8,7.7c-3.2,1.2-6.5,2.1-9.7,3c-2.8,0.8-5.4,1.7-8.1,2.2
				c-3.2,0.7-6.5,0.8-9.7,1.8c-5.1,1.5-10.5,1.8-15.6,2.1c-10.2,0.6-20.4,1-30.7-0.7c-5.1-0.8-10.4-1.4-15.3-2.9
				c-5.8-1.7-11.3-4-16.3-7.3c-19.2-12.7-29.7-30.7-30.5-53.9c-0.1-5.1,0-10.2-0.1-15.2c-0.3-11-0.7-22.1-1-33.1
				c-0.1-4.3-0.1-8.6-1.1-12.8c-1.2-5.1-2.9-9.8-5.2-14.4c-4.1-8-10.2-14.4-17.7-19.3c-7.7-5-16-8.4-25.4-8.6
				c-5.7,0-11.5-0.7-17,1.2c-2.2,0.8-4.6,1-6.6,1.8c-9.8,4.1-18.2,10.2-24.4,19.1c-4.1,5.8-6.8,12.2-8.7,18.9
				c-1.5,5.7-1.5,11.3-1.5,17.1c0,17.1,0,34.2,0,51.4c0,6.9,0,13.9,0.3,20.9c0.1,4.1,0.7,8.3,1,12.6c0.4,8.6,0,17.1,1.2,25.7
				c1,6.6,1.9,13.3,3.3,19.7c1.2,5.9,3.3,11.7,5.1,17.7c2.8,9.3,6.8,18.1,11.2,26.8c6.5,12.8,14.5,24.9,23.9,35.8
				c12.2,14.1,25.8,26.4,41.6,36.5c11.5,7.3,23.6,13.5,36.3,18.2c4.4,1.7,9,3,13.4,4.3c4.3,1.2,8.6,2.6,12.8,3.6
				c5.1,1.1,10.4,1.9,15.5,2.6c5.5,0.7,10.9,1.1,16.4,1.4c8.6,0.6,17.1,0,25.7-1.1c4.8-0.6,9.5-1.1,14.4-1.7c0.1,0,0.3,0,0.3,0
				c5.1-1.2,10.2-2.3,15.2-3.7c5.4-1.5,10.8-2.9,16-4.8c8.8-3.2,17.4-7.2,25.7-11.7c16.3-9,30.9-20,44.1-33.1
				c10.8-10.8,19.9-22.8,27.8-35.8c5.5-9.3,10.2-18.9,14.2-29c1.7-4,3-8.1,4.3-12.4c1.2-4.1,2.2-8.4,3.2-12.7
				c0.8-3.5,1.8-6.8,2.2-10.2c0.8-5.9,1.5-12,2.1-18.1c1-9.7,1.1-19.3,0-29.1c-0.6-5.4-1.2-10.8-1.9-16c-0.4-3.3-1-6.8-1.8-10.1
				c-1.1-4.3-2.3-8.7-3.6-12.8c-1.9-5.9-3.6-11.9-5.9-17.5C466.8,159.8,462.8,152.4,459.2,145.1z M250.5,104.7c3.6,0,7.3-0.1,10.9,0
				c2.2,0.1,4.1-0.6,5.9-1.5c2.5-1.2,3.7-3.6,4.1-6.4c0.7-4.3-3.9-9-8.1-8.8c-5.7,0.3-11.5,0.1-17.3,0c-4.8-0.1-9.5-1.4-13.8-3.9
				c-8.3-4.8-14.6-17.7-10.9-27.2c0.8-2.1,1.2-4.1,1.9-6.2c1.7-5.5-2.1-9.1-5.8-10.5c-1.7-0.7-3.5-0.4-5.2,1
				c-3.2,2.3-5.1,5.5-7.2,8.8c-2.5,4-5.5,6.9-10.4,8.4c-5.7,1.8-10.2,0.3-14.6-2.8c-4.4-3-6.1-7.7-6.6-13c-0.3-1.9,0-4-0.3-5.9
				c-0.7-6.2-5.8-8.7-10.5-6.9c-2.8,1.1-5.8,5.1-5.8,8.7c0,5.7,0,11.3,0,16.8c0,3.6,0.1,3.7,3.9,3.7c5.9-0.1,11.9,0.3,17.7,1.8
				c5.2,1.4,10.5,2.9,15.6,5.2c10.6,4.7,19.9,11,28,19.3c4.7,4.8,8.8,10.2,12.3,16c1.2,2.2,2.9,3.6,5.8,3.3
				C243.8,104.6,247.2,104.7,250.5,104.7z M289.5,502.5c-12-1-20.9,10.5-20.9,20c0,11.9,9.5,21.1,20.6,21c11.6,0,20.7-8.8,20.9-20.7
				C310.2,512.3,301.5,502,289.5,502.5z"/>
			<path d="M173.7,149.6c0.7,8.3-7,16.7-16.6,16.6c-9.7-0.1-16.7-7.9-16.7-16.7c0-9.3,7.9-16.7,16.7-16.7
				C165.5,132.6,174.3,140.2,173.7,149.6z"/>
		</g>
	</g>
</g>
</svg>
