<?xml version="1.0" encoding="utf-8"?>
<!-- Generator: Adobe Illustrator 18.0.0, SVG Export Plug-In . SVG Version: 6.00 Build 0)  -->
<!DOCTYPE svg PUBLIC "-//W3C//DTD SVG 1.1//EN" "http://www.w3.org/Graphics/SVG/1.1/DTD/svg11.dtd">
<svg version="1.1" id="Layer_1" xmlns="http://www.w3.org/2000/svg" xmlns:xlink="http://www.w3.org/1999/xlink" x="0px" y="0px"
	 viewBox="0 0 407.7 573.5" enable-background="new 0 0 407.7 573.5" xml:space="preserve">
<g>
	<g>
		<g>
			<path d="M179.9,418.8c-1.4-0.7-2.8-1.4-4.2-2c-8.4-3.7-14.5-9.9-18.8-18c-0.4-0.8-0.8-1.5-1.3-2.4c-0.9,0-1.8,0-2.7,0
				c-21.1,0-42.2,0-63.4,0c-2,0-3.1,0.5-4.1,2.4c-4.4,7.9-9,15.7-13.5,23.6c-1.3,2.3-2.8,4.4-5.4,5.5c-2.7,1.2-5.2,2.1-8.4,1.1
				c-3.4-1-5.9-2.8-7.6-5.8c-2.2-3.8-2.2-7.7-0.1-11.5c2.7-4.9,5.5-9.7,8.4-14.7c-0.6-0.2-1-0.4-1.4-0.4c-2.7,0-5.4,0-8.2,0
				c-1.1,0-1.8,0.5-2.3,1.4c-4.4,7.7-8.7,15.4-13.1,23c-1.7,2.9-3.3,5.8-6.6,7.2c-2.6,1.1-5,1.8-8,1c-3.3-1-5.8-2.7-7.5-5.6
				c-2.4-4-2.4-8-0.2-12c2.5-4.5,5.1-9,7.7-13.6c0.2-0.3,0.3-0.6,0.6-1.1c-0.7-0.1-1.3-0.3-1.8-0.4c-3.8-0.3-7-1.6-9.5-4.6
				c-5-6-2.8-15.1,4.1-18.4c1.5-0.7,3-1,4.6-1c1,0,1.9,0,2.9,0c0.3-1.2-0.2-2-0.7-2.8c-2.6-4.6-5.2-9.2-7.9-13.7
				c-3.7-6.3-0.9-14.4,6.1-17.1c5.3-2,11.2-0.3,14.3,4.6c3.1,5,6,10.2,8.9,15.3c2.3,4,4.7,8,7,12.1c0.7,1.2,1.5,1.7,2.9,1.6
				c2.8,0,5.6,0,8.3,0c0.5-1.9-0.7-3.1-1.4-4.3c-2.3-4.2-4.7-8.3-7.1-12.3c-4.3-7.2,0.7-16.1,8.1-17.5c4.4-0.8,10.3,1.5,12.5,5.5
				c4.8,8.6,9.8,17,14.8,25.5c0.4,0.6,0.7,1.3,1.1,1.8c0.6,0.8,1.3,1.4,2.4,1.3c0.5,0,1,0,1.4,0c20,0,40,0,60,0c0.9,0,1.7,0,2.7,0
				c0.8-2.1,1.6-4.1,2.4-6c3.2-8.2,8.8-14.3,16.3-18.8c2-1.2,4.3-2.1,6.5-3c0.8-0.3,1.2-0.7,1.2-1.5c0-2.4,0-4.8,0-7.3
				c-2.3-0.4-4.4-0.9-6.6-1.1c-3.4-0.4-6.7-0.9-10-1.8c-1.6-0.4-3.2-0.7-4.9-1.1c-6.6-1.3-12.8-3.5-19.1-5.9
				c-5.5-2.1-10.9-4.4-16.1-7.1c-10.1-5.2-19.5-11.3-28.3-18.5c-7.5-6.1-14.3-12.8-20.6-20.1c-7.6-8.8-14.1-18.4-19.6-28.6
				c-3.2-5.9-6-12-8.4-18.2c-1.8-4.7-3.2-9.5-4.6-14.3c-1-3.3-1.9-6.7-2.7-10.1c-0.6-2.6-0.9-5.2-1.2-7.8c-0.5-3.7-1.1-7.4-1.6-11.1
				c-0.1-0.6-0.1-1.1-0.1-1.7c-0.1-1.6-0.1-3.2-0.2-4.8c-0.2-5.9,0.1-11.8-0.7-17.7c-0.4-3.2-0.3-6.5-0.3-9.8c0-6,0-12,0-18
				c0-0.9,0-1.7,0-3c-0.9,0.5-1.5,0.8-1.9,1.1c-4.3,3.5-8.7,7-13,10.6c-6.5,5.4-15.8,2.6-18.9-5.1c-1.8-4.5,0-10.6,4.2-13.9
				c5.1-4.1,10.2-8.2,15.3-12.3c0.7-0.6,1.2-1.4,1.8-2.2c-2.6-2-5-3.8-7.4-5.6c-3.3-2.4-6.7-4.6-9.9-7.1C1.8,98-0.3,94.5,0,90.2
				c0.3-4.5,3.3-8.9,8.1-10.6c4.8-1.8,8.7-0.1,12.4,2.5c5.3,3.8,10.5,7.7,16,11.8c0.5-1.1,1-2.1,1.2-3.1
				c3.5-12.2,10.2-22.3,19.9-30.5c3.9-3.3,8.1-6,12.5-8.2c1.7-0.8,1.9-1.8,1.9-3.4c0-6.2-0.2-12.3,0-18.5c0.3-7.5,2.5-14.3,7.6-20
				c4.1-4.6,9.2-7.8,15.1-9.3c4-1,8.1-1.3,12.4-0.5c5.8,1,10.9,3.3,15.2,7.3c0.2,0.2,0.4,0.3,0.5,0.5c2.6,2.7,2.6,2.7,5.7,1.3
				c2.6-1.1,5.3-1.9,8.2-1.8c0.4,0,0.8,0,1.2,0c5.7-0.3,10.9,1.5,15.7,4.3c6.1,3.6,10.4,8.8,12.9,15.4c1.5,4.2,2.5,8.6,1.7,13.1
				c-0.2,1.5,0.2,2,1.8,2.1c1.9,0.1,3.8,0,5.8,0.1c6.2,0.4,11.5,2.8,16.2,6.8c3.6,3.1,6.5,6.7,8.3,11.1c1.3,3.1,2.3,6.4,2.5,9.9
				c0.3,6.1-1,11.6-4,16.9c-3.2,5.6-7.8,9.7-13.6,12.4c-4.4,2-9.1,2.8-13.9,2.9c-2.6,0-5.3,0-7.9,0c-0.8,0-1.6,0.1-2.4,0.1
				c-0.1,0.5-0.2,0.8-0.2,1.1c0.2,8.1,0.4,16.1,0.6,24.2c0.1,5.2,0.2,10.4,0.2,15.6c0.1,8.6,4,15,11,19.7c3.1,2,6.6,3,10.4,3.6
				c6.4,1,12.7,0.9,19.1,0.7c4-0.1,8.1-0.6,12-1.6c2.3-0.6,4.7-0.7,7-1.3c3.4-1,6.8-2.1,10.1-3.3c6.5-2.4,12.7-5.6,18.5-9.4
				c8.4-5.4,15.9-11.9,22.4-19.5c5.2-6.1,9.6-12.7,13.2-19.9c2.2-4.4,4.3-9,5.6-13.8c0.8-2.9,1.8-5.7,2.6-8.6c0.6-2.3,0.9-4.7,1.3-7
				c0.4-2.8,0.6-5.6,1.2-8.3c0.8-3.8,3.2-6.4,6.8-8c5.3-2.2,10.4-0.9,14,3.2c5.9,6.6,11.1,13.7,15.8,21.2c5.2,8.3,9.4,17,13.1,26
				c1.3,3.2,2.3,6.5,3.3,9.9c1.3,4.1,2.5,8.1,3.6,12.3c0.6,2.1,0.9,4.4,1.2,6.6c0.4,2.6,0.8,5.2,1.2,7.8c1.8,11.1,2.2,22.3,1.2,33.5
				c-0.4,4.8-0.9,9.5-1.5,14.3c-0.4,2.7-1.1,5.4-1.7,8.2c-0.3,1.6-0.8,3.2-1.1,4.9c-1.1,6-3.1,11.8-5.2,17.4c-2,5.6-4.5,11-7.2,16.3
				c-4.4,8.8-9.7,17.1-15.7,25c-8.9,11.7-19.2,21.9-30.9,30.8c-8.1,6.1-16.8,11.5-25.9,16c-5.9,2.9-11.9,5.5-18,7.6
				c-5,1.8-10.1,3.4-15.3,4.4c-3.2,0.6-6.5,1.4-9.7,2c-5.5,0.9-11,1.8-16.5,1.9c-1.1,0-2.2,0.4-3.4,0.6c0,2.7,0,5.3,0,8
				c10.2,3.5,17.6,10.2,22.6,19.7c1,1.9,1.6,4.1,2.3,6.2c0.5,1.7,1,2.2,2.9,2.2c0.6,0,1.1,0,1.7,0c43,0,85.9,0,128.9,0
				c1,0,2.1,0,3,0c0.6-1.1,0-1.5-0.6-2.1c-4.3-4.2-8.5-8.5-12.7-12.7c-1.8-1.7-3.2-3.7-4-6c-1.4-4.3,0.7-10.1,4.5-13
				c4-3,11.3-3.1,15.4,1c3.3,3.4,6.8,6.7,10.1,10.1c8.3,8.3,16.6,16.7,25,24.9c2.2,2.2,4,4.6,4.5,7.7c0.3,2.3,0.2,4.8-0.1,7.1
				c-0.4,3.1-2.3,5.4-4.5,7.5c-11.4,11.3-22.8,22.7-34.1,34.1c-1.7,1.7-3.6,2.9-5.9,3.7c-5,1.8-12.1-1.5-14.2-6.9
				c-2-5.2-0.7-9.9,2.6-13.2c5.3-5.4,10.8-10.8,16.2-16.2c0.5-0.5,0.9-1,1.5-1.8c-0.8-0.1-1.3-0.3-1.8-0.3c-0.6,0-1.1,0-1.7,0
				c-44.9,0-89.8,0-134.6,0c-0.6,0-1.3,0-1.9,0c-1,0-1.6,0.5-2,1.4c-3.8,8.3-10,14.3-18,18.5c-1,0.5-2.1,1-3.3,1.3
				c-1.3,0.4-1.9,1.1-1.8,2.4c0,0.7,0,1.4,0,2.2c0,46.1,0,92.2,0,138.2c0,4.3-1.5,8-5.1,10.5c-2.9,2-5.9,3.1-9.8,2
				c-4.4-1.3-7.1-3.9-8.6-8c-0.3-0.7-0.4-1.5-0.5-2.3c-0.1-1.3-0.1-2.6-0.1-3.8c0-45.6,0-91.2,0-136.8
				C179.9,421.1,179.9,420,179.9,418.8z M314.7,107.8c-1.3-0.2-1.6,0.3-1.8,1c-0.7,2.2-1.4,4.4-2.3,6.5c-4.5,10-9.8,19.6-16.6,28.2
				c-5.9,7.6-12.5,14.4-20,20.5c-7.4,6.1-15.5,11.3-24.1,15.4c-4.4,2.1-9,3.8-13.6,5.6c-2.3,0.9-4.7,1.5-7,2.2
				c-2,0.6-3.9,1.2-5.9,1.6c-2.3,0.5-4.7,0.6-7,1.3c-3.7,1.1-7.6,1.3-11.3,1.5c-7.4,0.4-14.8,0.7-22.2-0.5c-3.7-0.6-7.5-1-11.1-2.1
				c-4.2-1.2-8.2-2.9-11.8-5.3c-13.9-9.2-21.5-22.2-22.1-39c-0.1-3.7,0-7.4-0.1-11c-0.2-8-0.5-16-0.7-24c-0.1-3.1-0.1-6.2-0.8-9.3
				c-0.9-3.7-2.1-7.1-3.8-10.4c-3-5.8-7.4-10.4-12.8-14c-5.6-3.6-11.6-6.1-18.4-6.2c-4.1,0-8.3-0.5-12.3,0.9
				c-1.6,0.6-3.3,0.7-4.8,1.3c-7.1,3-13.2,7.4-17.7,13.8c-3,4.2-4.9,8.8-6.3,13.7c-1.1,4.1-1.1,8.2-1.1,12.4c0,12.4,0,24.8,0,37.2
				c0,5,0,10.1,0.2,15.1c0.1,3,0.5,6,0.7,9.1c0.3,6.2,0,12.4,0.9,18.6c0.7,4.8,1.4,9.6,2.4,14.3c0.9,4.3,2.4,8.5,3.7,12.8
				c2,6.7,4.9,13.1,8.1,19.4c4.7,9.3,10.5,18,17.3,25.9c8.8,10.2,18.7,19.1,30.1,26.4c8.3,5.3,17.1,9.8,26.3,13.2
				c3.2,1.2,6.5,2.2,9.7,3.1c3.1,0.9,6.2,1.9,9.3,2.6c3.7,0.8,7.5,1.4,11.2,1.9c4,0.5,7.9,0.8,11.9,1c6.2,0.4,12.4,0,18.6-0.8
				c3.5-0.4,6.9-0.8,10.4-1.2c0.1,0,0.2,0,0.2,0c3.7-0.9,7.4-1.7,11-2.7c3.9-1.1,7.8-2.1,11.6-3.5c6.4-2.3,12.6-5.2,18.6-8.5
				c11.8-6.5,22.4-14.5,31.9-24c7.8-7.8,14.4-16.5,20.1-25.9c4-6.7,7.4-13.7,10.3-21c1.2-2.9,2.2-5.9,3.1-9c0.9-3,1.6-6.1,2.3-9.2
				c0.6-2.5,1.3-4.9,1.6-7.4c0.6-4.3,1.1-8.7,1.5-13.1c0.7-7,0.8-14,0-21.1c-0.4-3.9-0.9-7.8-1.4-11.6c-0.3-2.4-0.7-4.9-1.3-7.3
				c-0.8-3.1-1.7-6.3-2.6-9.3c-1.4-4.3-2.6-8.6-4.3-12.7C320.2,118.5,317.3,113.1,314.7,107.8z M163.6,78.6c2.6,0,5.3-0.1,7.9,0
				c1.6,0.1,3-0.4,4.3-1.1c1.8-0.9,2.7-2.6,3-4.6c0.5-3.1-2.8-6.5-5.9-6.4c-4.1,0.2-8.3,0.1-12.5,0c-3.5-0.1-6.9-1-10-2.8
				c-6-3.5-10.6-12.8-7.9-19.7c0.6-1.5,0.9-3,1.4-4.5c1.2-4-1.5-6.6-4.2-7.6c-1.2-0.5-2.5-0.3-3.8,0.7c-2.3,1.7-3.7,4-5.2,6.4
				c-1.8,2.9-4,5-7.5,6.1c-4.1,1.3-7.4,0.2-10.6-2c-3.2-2.2-4.4-5.6-4.8-9.4c-0.2-1.4,0-2.9-0.2-4.3c-0.5-4.5-4.2-6.3-7.6-5
				c-2,0.8-4.2,3.7-4.2,6.3c0,4.1,0,8.2,0,12.2c0,2.6,0.1,2.7,2.8,2.7c4.3-0.1,8.6,0.2,12.8,1.3c3.8,1,7.6,2.1,11.3,3.8
				c7.7,3.4,14.4,8,20.3,14c3.4,3.5,6.4,7.4,8.9,11.6c0.9,1.6,2.1,2.6,4.2,2.4C158.7,78.5,161.2,78.6,163.6,78.6z M191.8,366.6
				c-8.7-0.7-15.1,7.6-15.1,14.5c0,8.6,6.9,15.3,14.9,15.2c8.4,0,15-6.4,15.1-15C206.8,373.7,200.5,366.3,191.8,366.6z"/>
			<path d="M108,111.1c0.5,6-5.1,12.1-12,12c-7-0.1-12.1-5.7-12.1-12.1c0-6.7,5.7-12.1,12.1-12.1C102,98.8,108.4,104.3,108,111.1z"
				/>
		</g>
	</g>
</g>
</svg>
