<?xml version="1.0" encoding="utf-8"?>
<!-- Generator: Adobe Illustrator 18.0.0, SVG Export Plug-In . SVG Version: 6.00 Build 0)  -->
<!DOCTYPE svg PUBLIC "-//W3C//DTD SVG 1.1//EN" "http://www.w3.org/Graphics/SVG/1.1/DTD/svg11.dtd">
<svg version="1.1" id="Layer_1" xmlns="http://www.w3.org/2000/svg" xmlns:xlink="http://www.w3.org/1999/xlink" x="0px" y="0px"
	 viewBox="0 0 407.7 573.5" enable-background="new 0 0 407.7 573.5" xml:space="preserve">
<g>
	<g>
		<g>
			<path d="M227.8,422.1c0,45.6,0,91.2,0,136.8c0,1.3,0,2.6-0.1,3.8c-0.1,0.8-0.2,1.6-0.5,2.3c-1.5,4.1-4.3,6.7-8.6,8
				c-3.8,1.1-6.9,0-9.8-2c-3.6-2.5-5.1-6.1-5.1-10.5c0-46.1,0-92.2,0-138.2c0-0.7,0-1.4,0-2.2c0.1-1.3-0.5-2-1.8-2.4
				c-1.1-0.3-2.2-0.8-3.3-1.3c-8-4.2-14.2-10.2-18-18.5c-0.4-0.9-1-1.4-2-1.4c-0.6,0-1.3,0-1.9,0c-44.9,0-89.8,0-134.6,0
				c-0.6,0-1.1,0-1.7,0c-0.5,0-1,0.2-1.8,0.3c0.6,0.8,1,1.3,1.5,1.8c5.4,5.4,10.9,10.7,16.2,16.2c3.2,3.3,4.6,7.9,2.6,13.2
				c-2.1,5.4-9.2,8.8-14.2,6.9c-2.3-0.8-4.2-2-5.9-3.7c-11.4-11.4-22.7-22.8-34.1-34.1c-2.2-2.2-4.1-4.5-4.5-7.5
				c-0.3-2.3-0.4-4.8-0.1-7.1c0.4-3.1,2.3-5.5,4.5-7.7c8.4-8.3,16.6-16.6,25-24.9c3.4-3.4,6.8-6.7,10.1-10.1c4.1-4.1,11.4-4,15.4-1
				c3.8,2.9,5.9,8.6,4.5,13c-0.8,2.4-2.2,4.3-4,6c-4.3,4.2-8.5,8.5-12.7,12.7c-0.6,0.6-1.2,1.1-0.6,2.1c1,0,2,0,3,0
				c43,0,85.9,0,128.9,0c0.6,0,1.1,0,1.7,0c1.8,0,2.3-0.5,2.9-2.2c0.7-2.1,1.2-4.3,2.3-6.2c5-9.4,12.4-16.2,22.6-19.7
				c0-2.7,0-5.2,0-8c-1.2-0.2-2.3-0.6-3.4-0.6c-5.6-0.1-11-1-16.5-1.9c-3.3-0.6-6.5-1.4-9.7-2c-5.3-1-10.3-2.7-15.3-4.4
				c-6.1-2.2-12.1-4.7-18-7.6c-9.2-4.5-17.8-9.9-25.9-16c-11.7-8.8-22-19.1-30.9-30.8c-6-7.9-11.3-16.2-15.7-25
				c-2.6-5.3-5.1-10.7-7.2-16.3c-2.1-5.7-4.1-11.4-5.2-17.4c-0.3-1.6-0.7-3.2-1.1-4.9c-0.6-2.7-1.3-5.4-1.7-8.2
				c-0.6-4.7-1.1-9.5-1.5-14.3c-1-11.2-0.6-22.4,1.2-33.5c0.4-2.6,0.8-5.2,1.2-7.8c0.4-2.2,0.7-4.4,1.2-6.6
				c1.1-4.1,2.3-8.2,3.6-12.3c1-3.3,2-6.7,3.3-9.9c3.7-9,7.9-17.7,13.1-26c4.7-7.5,9.9-14.6,15.8-21.2c3.6-4.1,8.7-5.4,14-3.2
				c3.6,1.5,5.9,4.2,6.8,8c0.6,2.7,0.8,5.5,1.2,8.3c0.4,2.4,0.7,4.7,1.3,7c0.7,2.9,1.8,5.7,2.6,8.6c1.3,4.8,3.3,9.4,5.6,13.8
				c3.6,7.1,8,13.7,13.2,19.9c6.5,7.6,14,14.1,22.4,19.5c5.8,3.8,12,7,18.5,9.4c3.3,1.2,6.7,2.4,10.1,3.3c2.3,0.6,4.7,0.7,7,1.3
				c3.9,1,8,1.5,12,1.6c6.4,0.2,12.7,0.3,19.1-0.7c3.7-0.6,7.3-1.5,10.4-3.6c7-4.6,10.9-11.1,11-19.7c0.1-5.2,0.1-10.4,0.2-15.6
				c0.2-8.1,0.4-16.1,0.6-24.2c0-0.3-0.1-0.6-0.2-1.1c-0.8,0-1.6-0.1-2.4-0.1c-2.6,0-5.3,0-7.9,0c-4.8-0.1-9.5-0.8-13.9-2.9
				c-5.8-2.7-10.4-6.7-13.6-12.4c-3-5.3-4.3-10.9-4-16.9c0.2-3.5,1.1-6.8,2.5-9.9c1.8-4.4,4.7-8,8.3-11.1c4.7-4,10.1-6.3,16.2-6.8
				c1.9-0.1,3.8,0,5.8-0.1c1.6-0.1,2-0.6,1.8-2.1c-0.7-4.5,0.2-8.9,1.7-13.1c2.4-6.6,6.8-11.8,12.9-15.4c4.8-2.8,10-4.6,15.7-4.3
				c0.4,0,0.8,0,1.2,0c2.9-0.1,5.6,0.7,8.2,1.8c3.2,1.4,3.2,1.3,5.7-1.3c0.2-0.2,0.3-0.3,0.5-0.5c4.3-4,9.3-6.3,15.2-7.3
				c4.2-0.7,8.4-0.5,12.4,0.5c5.9,1.5,11,4.7,15.1,9.3c5.1,5.7,7.3,12.5,7.6,20c0.2,6.2,0.1,12.3,0,18.5c0,1.5,0.2,2.5,1.9,3.4
				c4.5,2.2,8.7,4.9,12.5,8.2c9.7,8.2,16.5,18.2,19.9,30.5c0.3,1,0.8,2,1.2,3.1c5.4-4,10.6-8,16-11.8c3.7-2.6,7.6-4.2,12.4-2.5
				c4.8,1.7,7.8,6.1,8.1,10.6c0.3,4.4-1.7,7.9-5.1,10.5c-3.2,2.5-6.6,4.7-9.9,7.1c-2.4,1.8-4.8,3.6-7.4,5.6c0.7,0.8,1.2,1.6,1.8,2.2
				c5.1,4.1,10.2,8.2,15.3,12.3c4.1,3.3,6,9.4,4.2,13.9c-3.1,7.7-12.4,10.5-18.9,5.1c-4.3-3.6-8.6-7.1-13-10.6
				c-0.4-0.4-1-0.6-1.9-1.1c0,1.3,0,2.1,0,3c0,6,0,12,0,18c0,3.3,0.2,6.6-0.3,9.8c-0.8,5.9-0.5,11.8-0.7,17.7
				c-0.1,1.6-0.1,3.2-0.2,4.8c0,0.6-0.1,1.1-0.1,1.7c-0.5,3.7-1,7.4-1.6,11.1c-0.4,2.6-0.7,5.2-1.2,7.8c-0.8,3.4-1.7,6.8-2.7,10.1
				c-1.4,4.8-2.8,9.6-4.6,14.3c-2.4,6.2-5.2,12.3-8.4,18.2c-5.5,10.3-12,19.8-19.6,28.6c-6.3,7.3-13.1,14-20.6,20.1
				c-8.8,7.1-18.2,13.3-28.3,18.5c-5.2,2.7-10.6,5-16.1,7.1c-6.2,2.4-12.5,4.5-19.1,5.9c-1.6,0.3-3.3,0.6-4.9,1.1
				c-3.3,0.9-6.6,1.5-10,1.8c-2.2,0.2-4.3,0.7-6.6,1.1c0,2.6,0,5,0,7.3c0,0.8,0.4,1.2,1.2,1.5c2.2,0.9,4.5,1.8,6.5,3
				c7.4,4.5,13.1,10.6,16.3,18.8c0.8,2,1.6,4,2.4,6c0.9,0,1.8,0,2.7,0c20,0,40,0,60,0c0.5,0,1,0,1.4,0c1.1,0.1,1.8-0.5,2.4-1.3
				c0.4-0.6,0.7-1.2,1.1-1.8c4.9-8.5,9.9-17,14.8-25.5c2.2-4,8.1-6.3,12.5-5.5c7.4,1.4,12.4,10.3,8.1,17.5
				c-2.4,4.1-4.8,8.2-7.1,12.3c-0.7,1.2-1.9,2.4-1.4,4.3c2.7,0,5.5,0,8.3,0c1.3,0,2.2-0.4,2.9-1.6c2.3-4.1,4.7-8.1,7-12.1
				c3-5.1,5.8-10.3,8.9-15.3c3.1-5,8.9-6.7,14.3-4.6c6.9,2.7,9.8,10.8,6.1,17.1c-2.7,4.5-5.2,9.2-7.9,13.7c-0.5,0.8-1,1.6-0.7,2.8
				c1,0,2,0,2.9,0c1.6,0,3.1,0.3,4.6,1c6.9,3.3,9.1,12.4,4.1,18.4c-2.5,3-5.7,4.3-9.5,4.6c-0.6,0-1.1,0.2-1.8,0.4
				c0.3,0.6,0.4,0.8,0.6,1.1c2.6,4.5,5.2,9,7.7,13.6c2.2,4,2.2,8-0.2,12c-1.8,2.9-4.2,4.6-7.5,5.6c-3,0.8-5.4,0.1-8-1
				c-3.3-1.4-5-4.3-6.6-7.2c-4.4-7.6-8.8-15.3-13.1-23c-0.5-0.9-1.2-1.4-2.3-1.4c-2.7,0-5.4,0-8.2,0c-0.4,0-0.9,0.2-1.4,0.4
				c2.9,5,5.7,9.9,8.4,14.7c2.1,3.8,2.1,7.7-0.1,11.5c-1.7,3-4.2,4.8-7.6,5.8c-3.2,1-5.7,0-8.4-1.1c-2.5-1.1-4-3.2-5.4-5.5
				c-4.5-7.8-9.1-15.6-13.5-23.6c-1-1.8-2.1-2.4-4.1-2.4c-21.1,0.1-42.2,0-63.4,0c-0.9,0-1.7,0-2.7,0c-0.5,0.9-0.9,1.6-1.3,2.4
				c-4.2,8.1-10.4,14.2-18.8,18c-1.4,0.6-2.8,1.3-4.2,2C227.8,420,227.8,421.1,227.8,422.1z M85.2,124.1c-1.8,4.1-3,8.5-4.3,12.7
				c-1,3.1-1.9,6.2-2.6,9.3c-0.6,2.4-1,4.8-1.3,7.3c-0.5,3.9-1,7.8-1.4,11.6c-0.8,7-0.8,14,0,21.1c0.5,4.4,0.9,8.7,1.5,13.1
				c0.4,2.5,1.1,5,1.6,7.4c0.7,3.1,1.4,6.2,2.3,9.2c0.9,3,1.9,6,3.1,9c2.9,7.3,6.3,14.3,10.3,21c5.7,9.4,12.3,18.1,20.1,25.9
				c9.5,9.6,20.1,17.6,31.9,24c6,3.3,12.2,6.1,18.6,8.5c3.8,1.4,7.7,2.4,11.6,3.5c3.6,1,7.3,1.8,11,2.7c0.1,0,0.2,0,0.2,0
				c3.5,0.4,6.9,0.8,10.4,1.2c6.2,0.7,12.4,1.1,18.6,0.8c4-0.2,8-0.5,11.9-1c3.8-0.5,7.5-1.1,11.2-1.9c3.2-0.7,6.2-1.7,9.3-2.6
				c3.3-1,6.5-2,9.7-3.1c9.3-3.4,18-7.9,26.3-13.2c11.4-7.3,21.3-16.2,30.1-26.4c6.8-7.9,12.6-16.6,17.3-25.9
				c3.2-6.3,6.1-12.7,8.1-19.4c1.3-4.2,2.8-8.4,3.7-12.8c1-4.7,1.7-9.5,2.4-14.3c0.9-6.2,0.6-12.4,0.9-18.6c0.1-3,0.6-6,0.7-9.1
				c0.2-5,0.2-10.1,0.2-15.1c0-12.4,0-24.8,0-37.2c0-4.2,0.1-8.3-1.1-12.4c-1.4-4.9-3.3-9.5-6.3-13.7c-4.5-6.4-10.6-10.8-17.7-13.8
				c-1.5-0.6-3.2-0.8-4.8-1.3c-4-1.5-8.2-1-12.3-0.9c-6.8,0.1-12.9,2.6-18.4,6.2c-5.4,3.6-9.8,8.2-12.8,14
				c-1.7,3.3-2.9,6.7-3.8,10.4c-0.7,3.1-0.7,6.2-0.8,9.3c-0.3,8-0.5,16-0.7,24c-0.1,3.7,0,7.4-0.1,11c-0.5,16.8-8.1,29.8-22.1,39
				c-3.6,2.4-7.6,4.1-11.8,5.3c-3.7,1-7.4,1.5-11.1,2.1c-7.4,1.2-14.8,0.9-22.2,0.5c-3.8-0.2-7.6-0.4-11.3-1.5
				c-2.3-0.7-4.7-0.8-7-1.3c-2-0.4-4-1-5.9-1.6c-2.4-0.7-4.7-1.3-7-2.2c-4.6-1.8-9.2-3.5-13.6-5.6c-8.7-4.2-16.7-9.4-24.1-15.4
				c-7.4-6.1-14-12.9-20-20.5c-6.8-8.7-12.1-18.2-16.6-28.2c-0.9-2.1-1.6-4.3-2.3-6.5c-0.2-0.7-0.5-1.1-1.8-1
				C90.4,113.1,87.6,118.5,85.2,124.1z M251.5,78.7c2.1,0.2,3.3-0.8,4.2-2.4c2.5-4.2,5.5-8.1,8.9-11.6c5.8-6,12.6-10.6,20.3-14
				c3.6-1.6,7.4-2.8,11.3-3.8c4.2-1,8.5-1.4,12.8-1.3c2.7,0.1,2.8-0.1,2.8-2.7c0-4.1,0-8.2,0-12.2c0-2.6-2.2-5.6-4.2-6.3
				c-3.4-1.3-7.1,0.5-7.6,5c-0.2,1.4-0.1,2.9-0.2,4.3c-0.4,3.7-1.6,7.1-4.8,9.4c-3.2,2.2-6.5,3.3-10.6,2c-3.4-1.1-5.6-3.2-7.5-6.1
				c-1.5-2.3-2.9-4.6-5.2-6.4c-1.3-1-2.6-1.1-3.8-0.7c-2.6,1-5.4,3.6-4.2,7.6c0.5,1.5,0.8,3,1.4,4.5c2.7,6.9-1.9,16.2-7.9,19.7
				c-3.1,1.8-6.4,2.7-10,2.8c-4.2,0.1-8.3,0.2-12.5,0c-3.1-0.2-6.3,3.3-5.9,6.4c0.3,2,1.2,3.7,3,4.6c1.3,0.7,2.7,1.2,4.3,1.1
				c2.6-0.1,5.3,0,7.9,0C246.5,78.6,249,78.5,251.5,78.7z M201,381.4c0.1,8.6,6.7,15,15.1,15c8,0,14.9-6.7,14.9-15.2
				c0-6.9-6.4-15.2-15.1-14.5C207.2,366.3,200.9,373.7,201,381.4z"/>
			<path d="M299.7,111.1c-0.5,6,5.1,12.1,12,12c7-0.1,12.1-5.7,12.1-12.1c0-6.7-5.7-12.1-12.1-12.1
				C305.7,98.8,299.3,104.3,299.7,111.1z"/>
		</g>
	</g>
</g>
</svg>
